<?xml version="1.0" encoding="utf-8"?>
<!-- Generator: Adobe Illustrator 18.0.0, SVG Export Plug-In . SVG Version: 6.00 Build 0)  -->
<!DOCTYPE svg PUBLIC "-//W3C//DTD SVG 1.1//EN" "http://www.w3.org/Graphics/SVG/1.1/DTD/svg11.dtd">
<svg version="1.1" id="Layer_1" xmlns="http://www.w3.org/2000/svg" xmlns:xlink="http://www.w3.org/1999/xlink" x="0px" y="0px"
	 viewBox="0 0 113.8 82" enable-background="new 0 0 113.8 82" xml:space="preserve">
<path fill="#EA888F" d="M67.7,3.2c-3.7-3.1-8,3.1-10,6.5c-2-3.4-6.1-9.8-10-6.9c-5.6,4.2,8.4,21.4,10.5,24
	C58.3,26.8,72.8,7.4,67.7,3.2z"/>
<g>
	<g>
		<path fill="#C5E9F9" d="M73.9,78.5H80l-0.5-32.1H81v32.1h0.6c0.4,0,0.8,0.3,0.8,0.8c0,0.4-0.3,0.8-0.8,0.8h-7.7
			c-0.4,0-0.8-0.3-0.8-0.8C73.2,78.8,73.5,78.5,73.9,78.5z"/>
		<path fill="#C5E9F9" d="M86.2,60.1c-1.3,1.8-2.3,6.3-4.8,7.1c-4.5,1.6-5.1-10-5.5-12.1L86.2,60.1z"/>
		<polygon fill="#EA888F" points="66.1,36.7 64.9,41.1 60.4,37.7 		"/>
		<path fill="#C5E9F9" d="M76.6,28.1c2.7,0.1,5.3,1.3,7.5,4c3.5,4.3,2.6,10.1,3.3,15.2c0.6,5,6.2,7.8,11.8,6.5
			c0,0-12.6,13.8-27.8,3.6c-5.9-3.9-7.7-13.3-6.1-19.9C66.7,31.8,71.6,27.9,76.6,28.1z"/>
		<path fill="#DFE0E2" d="M74.6,45.2c-0.1-2.9,1.2-5.3,5-5.4c3.8-0.1,5.5,1.6,6.2,5.1c0.7,3.5,0.8,6.2,3.3,9
			C82.5,58.9,74.9,51.9,74.6,45.2z"/>
		<circle fill="#171717" cx="69.5" cy="36.2" r="1.4"/>
		<path fill="#C5E9F9" d="M111.1,42.6c-2.5-1.1-2.6,0.8-3.2,2.6c-1.2,4.2-4,9.2-9.2,9.2c3.5-0.3,6.2-3.2,6.9-8.5
			c0.4-2.9-1.6-10.3-5.8-7.9c-1.5,0.9-1.1,1.4,0.1,2.2c1.5,1,2.6,1.3,3.4,3c1.7,3.5-0.4,10.1-5,10.9l-0.8,0.5
			c4.6,3.2,11.8,0.3,14-4.4C112.6,47.9,113.9,43.9,111.1,42.6z"/>
		<path fill="#DFE0E2" d="M111.9,55.3c-1.7,0.4-2.9,2-4.8,2.1c-4.4,0.3-8.8-2.5-8.8-2.5c3.2,3.9,7.5,7.9,12.8,5.4
			C113.2,59.3,115.6,54.3,111.9,55.3z"/>
		<path fill="#FFFFFF" d="M82.8,44.5c-1.3,2.8,0.2,4.7,0.5,7.4c-0.8-1.8-2-9-4.7-8.4c-0.3,3,2.7,5.3,3.5,7.8
			c-1.8-2.5-3.5-4.4-6.7-4.2c-0.8,4.3,7.7,2.4,8.3,6.2v-0.4C84.1,51.6,85.7,43.9,82.8,44.5z"/>
		<path fill="#FCEE70" d="M71.9,26.5c-0.6,0.1-1,0.4-1.4,0.8c0.5-0.8,1-1.8,0.5-2.4c-0.6-0.6-1.2,0.1-1.4,0.7c-0.1,0.3-0.1,0.6,0,1
			c-0.3-0.7-0.8-1.2-1.3-1.2c-0.9,0.1-0.6,1.1-0.2,1.5c0.3,0.4,0.7,0.6,1.1,0.8c-0.8-0.1-1.9-0.1-2.1,0.6c-0.3,0.8,0.6,1.1,1.2,1
			c0.6-0.1,1-0.4,1.4-0.8c-0.5,0.8-1,1.8-0.5,2.4c0.6,0.6,1.2-0.1,1.4-0.7c0.1-0.3,0.1-0.6,0-1c0.3,0.7,0.8,1.2,1.3,1.2
			c0.9-0.1,0.6-1.1,0.2-1.5c-0.3-0.4-0.7-0.6-1.1-0.8c0.8,0.1,1.9,0.1,2.1-0.6C73.4,26.6,72.5,26.4,71.9,26.5z"/>
		<path fill="#FCEE70" d="M84.7,28.4c-0.5-0.3-1.1-0.4-1.7-0.4c0.9-0.3,2.1-0.7,2.1-1.5c0-0.9-1.1-0.8-1.6-0.4
			c-0.3,0.2-0.5,0.4-0.7,0.7c0.2-0.7,0.3-1.5-0.2-1.9c-0.7-0.5-1.3,0.4-1.3,1c0,0.5,0.1,1,0.3,1.4c-0.6-0.7-1.4-1.4-2-1.1
			c-0.8,0.4-0.3,1.3,0.3,1.6c0.5,0.3,1.1,0.4,1.7,0.4c-0.9,0.3-2.1,0.7-2.1,1.5c0,0.9,1.1,0.8,1.6,0.4c0.3-0.2,0.5-0.4,0.7-0.7
			c-0.2,0.7-0.3,1.5,0.2,1.9c0.7,0.5,1.3-0.4,1.3-1c0-0.5-0.1-1-0.3-1.4c0.6,0.7,1.4,1.4,2,1.1C85.9,29.7,85.3,28.7,84.7,28.4z"/>
		<path fill="#FCEE70" d="M78.3,25.5c-0.6,0-1.1,0.1-1.6,0.4c0.7-0.6,1.5-1.6,1.1-2.2c-0.4-0.8-1.3-0.2-1.6,0.3
			C76.1,24.3,76,24.7,76,25c-0.2-0.7-0.4-1.5-1-1.5c-0.9-0.1-0.9,0.9-0.7,1.5c0.2,0.4,0.6,0.8,0.9,1.1c-0.8-0.3-1.8-0.6-2.3,0
			c-0.6,0.7,0.3,1.2,1,1.3c0.6,0,1.1-0.1,1.6-0.4c-0.7,0.6-1.5,1.6-1.2,2.2c0.4,0.8,1.3,0.2,1.6-0.3c0.2-0.3,0.3-0.6,0.3-0.9
			c0.2,0.7,0.4,1.5,1,1.5c0.9,0.1,0.9-0.9,0.7-1.5c-0.2-0.4-0.6-0.8-0.9-1.1c0.8,0.3,1.8,0.6,2.3,0C79.8,26.1,78.9,25.6,78.3,25.5z"
			/>
		<path fill="#FCEE70" d="M73.5,21.7c-0.4,0-0.9,0.1-1.2,0.3c0.5-0.5,1.1-1.2,0.9-1.7c-0.3-0.6-1-0.2-1.2,0.2
			c-0.1,0.2-0.2,0.5-0.2,0.7c-0.1-0.6-0.3-1.1-0.8-1.2c-0.7-0.1-0.7,0.7-0.5,1.1c0.2,0.3,0.4,0.6,0.7,0.8c-0.6-0.2-1.4-0.4-1.7,0
			c-0.4,0.5,0.3,1,0.7,1c0.4,0,0.9-0.1,1.2-0.3c-0.5,0.5-1.1,1.2-0.9,1.7c0.3,0.6,1,0.2,1.2-0.2c0.1-0.2,0.2-0.5,0.2-0.7
			c0.1,0.6,0.3,1.1,0.8,1.2c0.7,0.1,0.7-0.7,0.5-1.1c-0.2-0.3-0.4-0.6-0.7-0.8c0.6,0.2,1.4,0.4,1.7,0C74.6,22.1,74,21.7,73.5,21.7z"
			/>
	</g>
	<g>
		<path fill="#171717" d="M47.1,78.6H36.7V47.5h-1.5v31.1h-0.6c-0.4,0-0.8,0.3-0.8,0.8c0,0.4,0.3,0.8,0.8,0.8h12.5
			c0.4,0,0.8-0.3,0.8-0.8C47.9,79,47.5,78.6,47.1,78.6z"/>
		<path fill="#171717" d="M29.7,63.5c1.5,2.1,2.7,7.2,5.5,8.2c5.2,1.9,5.9-11.4,6.4-13.9L29.7,63.5z"/>
		<polygon fill="#EA888F" points="52.7,36.8 54,41.8 59.3,37.9 		"/>
		<path fill="#C5E9F9" d="M40.7,26.9c-3,0.1-6.1,1.5-8.6,4.6c-4,4.9-3,11.6-3.8,17.4c-0.7,5.7-7.1,8.9-13.6,7.4
			c0,0,14.5,15.8,31.9,4.1c6.7-4.5,8.8-15.2,6.9-22.8C52,31.1,46.4,26.7,40.7,26.9z"/>
		<path fill="#171717" d="M43,46.5c0.1-3.3-1.4-6.1-5.8-6.2c-4.3-0.1-6.3,1.9-7.1,5.9c-0.8,4.1-0.9,7.1-3.8,10.3
			C33.8,62.2,42.7,54.2,43,46.5z"/>
		<polygon fill="#171717" points="57.3,42.1 53.2,45 49,42.1 49,48.4 53.2,45.1 57.3,48.4 		"/>
		<g>
			<path fill="#171717" d="M6,40.3l-4.2-0.9C-1,55.9,14.8,56.3,14.8,56.3C2.5,52.4,6,40.3,6,40.3z"/>
			<path fill="#171717" d="M12.6,41.4l-4.4-0.2c-2.4,11.2,6.6,15.1,6.6,15.1C8.9,49.5,12.6,41.4,12.6,41.4z"/>
		</g>
		<g>
			<path d="M54.2,39.1c-1.7-7.8-7.5-13.1-13.5-12.9c-3.2,0.1-6.4,1.8-9,5.5c-1.3,1.8-2.1,3.9-2.6,6.1"/>
			<g>
				<line fill="#FFFFFF" x1="21.1" y1="31.9" x2="29.4" y2="37"/>
				<path d="M21.1,31.9c0,0,0.1,0,0.2-0.1c0.1-0.1,0.3-0.2,0.5-0.3c0.4-0.2,1-0.4,1.6-0.5c0.6-0.1,1.3-0.2,1.9-0.1
					c0.6,0.1,1.2,0.3,1.7,0.6c0.5,0.3,1,0.7,1.3,1.3c0.3,0.5,0.6,1.1,0.8,1.7c0.1,0.3,0.1,0.6,0.2,0.9c0.1,0.3,0.1,0.6,0.1,0.8
					c0,0.2,0,0.5,0,0.6c0,0.1,0,0.2,0,0.2s-0.1,0-0.2,0.1c-0.1,0.1-0.3,0.2-0.5,0.3c-0.2,0.1-0.5,0.2-0.7,0.3
					c-0.3,0.1-0.6,0.2-0.9,0.3c-0.6,0.1-1.3,0.2-1.9,0.1c-0.6-0.1-1.2-0.3-1.7-0.6c-0.5-0.3-1-0.8-1.3-1.3c-0.3-0.5-0.6-1.1-0.8-1.7
					c-0.2-0.6-0.2-1.2-0.2-1.7c0-0.2,0-0.5,0-0.6C21.1,32,21.1,31.9,21.1,31.9z"/>
			</g>
			<g>
				<line fill="#FFFFFF" x1="20.6" y1="39.7" x2="29.8" y2="37.3"/>
				<path d="M20.6,39.7c0,0,0-0.1,0.1-0.2c0-0.1,0.1-0.4,0.2-0.6c0.1-0.5,0.4-1,0.7-1.6c0.3-0.5,0.7-1,1.2-1.4
					c0.5-0.4,1-0.7,1.6-0.8c0.6-0.2,1.2-0.2,1.8-0.1c0.6,0.1,1.2,0.3,1.8,0.7c0.3,0.1,0.5,0.3,0.8,0.5c0.2,0.1,0.4,0.4,0.6,0.5
					c0.2,0.1,0.3,0.3,0.4,0.4c0.1,0.1,0.2,0.2,0.2,0.2s0,0.1-0.1,0.2c0,0.1-0.1,0.4-0.2,0.6c-0.1,0.2-0.2,0.5-0.3,0.7
					c-0.1,0.3-0.3,0.6-0.4,0.8c-0.3,0.5-0.7,1-1.2,1.4c-0.5,0.4-1,0.7-1.6,0.8C25.6,42,25,42,24.3,41.9c-0.6-0.1-1.2-0.3-1.8-0.7
					c-0.5-0.3-1-0.7-1.4-1c-0.2-0.1-0.3-0.3-0.4-0.4C20.7,39.8,20.6,39.7,20.6,39.7z"/>
			</g>
		</g>
		<circle fill="#FFFFFF" cx="48.8" cy="36.1" r="1.6"/>
	</g>
</g>
</svg>
